<?xml version="1.0" encoding="UTF-8"?>
<!DOCTYPE svg PUBLIC "-//W3C//DTD SVG 1.1//EN" "http://www.w3.org/Graphics/SVG/1.1/DTD/svg11.dtd">
<svg xmlns="http://www.w3.org/2000/svg" version="1.1" width="64px" height="64px" style="shape-rendering:geometricPrecision; text-rendering:geometricPrecision; image-rendering:optimizeQuality; fill-rule:evenodd; clip-rule:evenodd" xmlns:xlink="http://www.w3.org/1999/xlink">
<g><path style="opacity:0.968" fill="#fe5b55" d="M 61.5,31.5 C 56.8333,27.1667 52.1667,22.8333 47.5,18.5C 46.5944,16.0863 44.9278,15.253 42.5,16C 38.9848,19.6824 35.3181,23.1824 31.5,26.5C 27.6819,23.1824 24.0152,19.6824 20.5,16C 17,15.5 15.5,17 16,20.5C 19.6824,24.0152 23.1824,27.6819 26.5,31.5C 23.1824,35.3181 19.6824,38.9848 16,42.5C 15.253,44.9278 16.0863,46.5944 18.5,47.5C 22.8333,52.1667 27.1667,56.8333 31.5,61.5C 17.8516,61.3461 8.35156,55.0127 3,42.5C -1.57653,27.5673 2.2568,15.4006 14.5,6C 27.2435,-0.51588 39.5768,0.150786 51.5,8C 58.2714,14.3756 61.6048,22.209 61.5,31.5 Z"/></g>
<g><path style="opacity:1" fill="#fefafa" d="M 47.5,18.5 C 44.2546,23.0878 40.588,27.4212 36.5,31.5C 39.8176,35.3181 43.3176,38.9848 47,42.5C 47.5,46 46,47.5 42.5,47C 38.9848,43.3176 35.3181,39.8176 31.5,36.5C 27.4212,40.588 23.0878,44.2546 18.5,47.5C 16.0863,46.5944 15.253,44.9278 16,42.5C 19.6824,38.9848 23.1824,35.3181 26.5,31.5C 23.1824,27.6819 19.6824,24.0152 16,20.5C 15.5,17 17,15.5 20.5,16C 24.0152,19.6824 27.6819,23.1824 31.5,26.5C 35.3181,23.1824 38.9848,19.6824 42.5,16C 44.9278,15.253 46.5944,16.0863 47.5,18.5 Z"/></g>
<g><path style="opacity:1" fill="#dc3e3f" d="M 47.5,18.5 C 52.1667,22.8333 56.8333,27.1667 61.5,31.5C 60.5,50.5 50.5,60.5 31.5,61.5C 27.1667,56.8333 22.8333,52.1667 18.5,47.5C 23.0878,44.2546 27.4212,40.588 31.5,36.5C 35.3181,39.8176 38.9848,43.3176 42.5,47C 46,47.5 47.5,46 47,42.5C 43.3176,38.9848 39.8176,35.3181 36.5,31.5C 40.588,27.4212 44.2546,23.0878 47.5,18.5 Z"/></g>
</svg>
